<svg style="position: fixed; visibility: hidden;" xmlns="http://www.w3.org/2000/svg" xmlns:xlink="http://www.w3.org/1999/xlink"><defs></defs><symbol id="pb-story-icon-arrow-down-lg" viewBox="0 0 30 30">
<rect x="0" y="0" fill="none" width="30" height="30"></rect>
<path d="M16,7v14.1716l6.7782-6.7782c0.3905-0.3905,1.0237-0.3905,1.4142,0l0,0c0.3905,0.3905,0.3905,1.0237,0,1.4142L15,25
	l-9.1924-9.1924c-0.3905-0.3905-0.3905-1.0237,0-1.4142l0,0c0.3905-0.3905,1.0237-0.3905,1.4142,0L14,21.1716V7
	c0-0.5523,0.4477-1,1-1h0C15.5523,6,16,6.4477,16,7z"></path>
</symbol><symbol id="pb-story-icon-flip" viewBox="0 0 30 30">
<rect fill-rule="evenodd" clip-rule="evenodd" fill="none" width="30" height="30"></rect>
<path fill="white" d="M29,14c0-3.897-7.2134-6-14-6S1,10.103,1,14c0,2.6744,3.397,4.5032,7.7214,5.3879V17.361C5.0852,16.5517,3,15.1268,3,14
	c0-1.6704,4.5654-4,12-4s12,2.3296,12,4c0,1.3853-3.1492,3.2207-8.4645,3.8075V14.5l-6,4.5l6,4.5v-3.6931
	C24.0745,19.2109,29,17.2201,29,14z"></path>
</symbol><symbol id="pb-story-icon-chevron-up-lg" viewBox="0 0 10 6">
<path d="M5 1L9 5" stroke="white" stroke-width="2" stroke-linecap="round" stroke-linejoin="round"></path>
<path d="M5 1L1 5" stroke="white" stroke-width="2" stroke-linecap="round" stroke-linejoin="round"></path>
</symbol><symbol id="pb-story-icon-loader-dots" viewBox="0 0 204 204">
    <circle cx="102.397" cy="101.603" r="100" stroke="black" stroke-width="3" stroke-linecap="round" stroke-dasharray="0.1 12"></circle>
</symbol></svg>